<svg width="137" height="26" xmlns="http://www.w3.org/2000/svg"><g fill="none"><path d="M39.566 23.068c.279 0 .418-.14.418-.418V9.186c0-.279-.14-.418-.418-.418h-.506l1.232-6.028c.03-.308-.103-.462-.396-.462H36.64c-.264 0-.418.125-.462.374L34.55 10.88c-.03.147-.007.26.066.341.073.08.176.121.308.121h.792V22.65c0 .279.14.418.418.418h3.432zm12.342 0c.279 0 .418-.14.418-.418v-3.124c0-.279-.14-.418-.418-.418H51.6l-.286-5.544h.66c.279 0 .418-.14.418-.418V10c0-.279-.14-.418-.418-.418h-.836l-.154-3.08h.924c.279 0 .418-.14.418-.418V3.092c0-.279-.14-.418-.418-.418H41.216c-.279 0-.418.14-.418.418v15.532c0 .279.14.418.418.418h5.17c.279 0 .418-.14.418-.418V16.05c0-.279-.14-.418-.418-.418h-1.232v-2.068h2.156l.352 9.086c0 .279.147.418.44.418h3.806zM47.134 9.582h-1.98v-3.08h1.848l.132 3.08zm-.748 13.486c.279 0 .418-.14.418-.418v-2.442c0-.279-.14-.418-.418-.418h-5.214c-.279 0-.418.14-.418.418v2.442c0 .279.14.418.418.418h5.214zm14.298 0c.279 0 .418-.14.418-.418V9.208c0-.279-.132-.418-.396-.418h-.418l1.43-6.05c.073-.308-.051-.462-.374-.462H57.89c-.235 0-.381.117-.44.352l-1.958 8.25c-.03.147-.007.26.066.341.073.08.176.121.308.121h.77V22.65c0 .279.14.418.418.418h3.63zm12.188 0c.279 0 .418-.14.418-.418v-3.08c0-.279-.14-.418-.418-.418h-1.518l-1.452-7.062 2.992-.374c.264-.044.396-.19.396-.44V7.954c0-.25-.117-.374-.352-.374h-.088l-3.784.462-1.078-5.258c-.044-.25-.198-.374-.462-.374h-3.718c-.25 0-.374.125-.374.374v.066l1.012 5.764-2.2.264c-.264.044-.396.19-.396.44v3.3c0 .25.117.374.352.374h.088l2.86-.33 1.782 10.032c.044.25.19.374.44.374h5.5zm-.242-16.17c.264 0 .396-.11.396-.33l-.022-.132-.638-3.278c-.044-.25-.198-.374-.462-.374H69.33c-.264 0-.396.11-.396.33l.022.132.638 3.278c.044.25.198.374.462.374h2.574zM93.836 23.09c.279 0 .418-.14.418-.418V12.134c0-.279-.132-.418-.396-.418h-.418V3.29c0-.279-.14-.418-.418-.418h-8.844c-.279 0-.418.14-.418.418v3.124c0 .279.14.418.418.418h4.928v4.884h-1.232V8.174c0-.279-.14-.418-.418-.418h-3.19c-.279 0-.418.14-.418.418v7.084c0 .279.14.418.418.418H89.7v3.432h-.44c-.279 0-.418.14-.418.418v3.146c0 .279.14.418.418.418h4.576zm-11.264-.44c.279 0 .418-.14.418-.418V11.166c0-.279-.14-.418-.418-.418h-2.178l.572-3.432h1.672c.279 0 .418-.14.418-.418V3.752c0-.279-.14-.418-.418-.418H76.83c-.279 0-.418.14-.418.418v3.146c0 .279.14.418.418.418h.396l-.858 5.654c-.03.293.103.44.396.44h.286v8.822c0 .279.14.418.418.418h5.104zm-2.134-3.828h-.792v-4.268h.792v4.268zm7.634 1.914c.279 0 .418-.14.418-.418v-3.124c0-.279-.14-.418-.418-.418h-4.224c-.279 0-.418.14-.418.418v3.124c0 .279.14.418.418.418h4.224zm26.42 2.244c.279 0 .418-.14.418-.418V2.784c0-.279-.14-.418-.418-.418h-3.872c-.279 0-.418.14-.418.418v19.778c0 .279.14.418.418.418h3.872zm-6.754.044c.279 0 .418-.14.418-.418v-8.514c0-.279-.14-.418-.418-.418h-5.324v-1.606h5.324c.279 0 .418-.14.418-.418V3.224c0-.279-.14-.418-.418-.418h-9.812c-.279 0-.418.14-.418.418V6.26c0 .279.14.418.418.418h5.544v1.826h-5.302c-.279 0-.418.14-.418.418v7.898c0 .279.14.418.418.418h5.302v1.914h-4.774c-.279 0-.418.14-.418.418v3.036c0 .279.14.418.418.418h9.042zm23.01-10.186c.19 0 .367-.066.528-.198l.66-.528.748.55a.85.85 0 0 0 .506.176h2.42c.279 0 .418-.14.418-.418v-.594a.607.607 0 0 0-.264-.506l-1.496-1.056.946-.77c.161-.161.242-.323.242-.484V6.172h.264c.176 0 .264-.14.264-.418v-2.31c0-.279-.14-.418-.418-.418h-3.872l.066-.396c.03-.25-.103-.374-.396-.374h-2.354c-.264 0-.41.125-.44.374l-.572 3.74c-.03.293.103.44.396.44h2.332c.25 0 .396-.132.44-.396l.044-.242h.99V8.24l-.33.286-.352-.286v-.594c0-.279-.14-.418-.418-.418h-2.398c-.279 0-.418.14-.418.418V9.01c0 .22.088.381.264.484l1.012.814-1.32 1.012c-.161.161-.242.33-.242.506v.594c0 .279.14.418.418.418h2.332zm-4.4-7.348c.279 0 .418-.14.418-.418v-.22h.792c.279 0 .418-.14.418-.418V3.07c0-.279-.14-.418-.418-.418h-.792v-.198c0-.117-.14-.176-.418-.176h-2.376c-.279 0-.418.125-.418.374h-.814v-.198c0-.117-.14-.176-.418-.176h-2.398c-.279 0-.418.125-.418.374h-.726c-.279 0-.418.14-.418.418v1.364c0 .279.14.418.418.418h.726v.286c0 .19.14.286.418.286h2.398c.279 0 .418-.14.418-.418v-.154h.814v.308c0 .22.14.33.418.33h2.376zm.968 7.392c.279 0 .418-.14.418-.418v-6.05c0-.279-.14-.418-.418-.418h-5.258l.044-.198c.015-.103-.132-.154-.44-.154h-2.266c-.25 0-.403.117-.462.352l-.638 2.596a.364.364 0 0 0 .066.33.379.379 0 0 0 .308.132h2.266c.264 0 .418-.132.462-.396l.022-.088h3.234v2.09h-.242c-.147 0-.22.14-.22.418v1.386c0 .279.14.418.418.418h2.706zm-3.806-.154c.279 0 .418-.14.418-.418V9.626c0-.279-.14-.418-.418-.418h-4.334c-.279 0-.418.14-.418.418v2.684c0 .279.14.418.418.418h4.334zm-1.848-1.474h-.616v-.55h.616v.55zm7.48 11.726c.279 0 .418-.14.418-.418v-1.65h5.962c.279 0 .418-.14.418-.418v-1.65c0-.279-.14-.418-.418-.418h-5.962v-.484h5.456c.279 0 .418-.14.418-.418v-1.122c0-.279-.14-.418-.418-.418h-5.456V15.5l5.456-.044c.279 0 .418-.14.418-.418v-1.474c0-.279-.14-.418-.418-.418l-15.752.11c-.279 0-.418.14-.418.418v1.474c0 .279.14.418.418.418l5.676-.044v.462h-5.676c-.279 0-.418.14-.418.418v1.122c0 .279.14.418.418.418h5.676v.484h-6.182c-.279 0-.418.14-.418.418v1.65c0 .279.14.418.418.418h6.182v.396h-1.562c-.279 0-.418.14-.418.418v.836c0 .279.14.418.418.418h5.764z" fill="#1F1F1F"/><path fill="#FF7212" d="M.144 22.692V9.768l16.407 9.772V26L5.45 19.525v6.243z"/><path fill="#FFF" d="M5.643 6.434 0 9.838l16.551 9.702 5.43-3.47z"/><path fill="#FF9650" d="M5.449 19.525v6.243l5.414-3.076z"/><path fill="#0259FF" d="m5.449.025-.02 6.404 16.551 9.637.02-12.91L16.571 0l-.02 6.455z"/><path fill="#0136FC" d="M.17 3.455v6.449l5.259-3.475.02-6.404z"/><path d="M11.356 3.44C11.461 3.393 16.571 0 16.571 0v6.455l-5.215-3.016z" fill="#83B1FF"/><path fill="#FF4E00" d="m22 16.066-5.449 3.474V26L22 22.672z"/></g></svg>